<svg xmlns="http://www.w3.org/2000/svg" xmlns:xlink="http://www.w3.org/1999/xlink" width="600" zoomAndPan="magnify" viewBox="0 0 450 449.999984" height="600" preserveAspectRatio="xMidYMid meet" version="1.0"><defs><clipPath id="id1"><path d="M 55 245 L 266 245 L 266 377.308594 L 55 377.308594 Z M 55 245 " clip-rule="nonzero"/></clipPath></defs><path fill="#f3f6f8" d="M 279.839844 263.515625 C 278.367188 262.054688 277.164062 260.351562 276.289062 258.46875 L 273.609375 252.707031 C 270.660156 254.308594 267.4375 255.089844 264.277344 255.964844 L 263.804688 255.957031 L 261.636719 256.214844 L 258.109375 255.917969 C 257.71875 255.761719 257.917969 255.800781 257.507812 255.789062 C 253.574219 254.0625 255.472656 254.855469 251.820312 253.394531 C 251.886719 253.289062 251.398438 253.113281 251.398438 253.109375 C 248.65625 250.289062 250.109375 251.738281 247.019531 248.753906 C 246.855469 248.378906 246.96875 248.550781 246.679688 248.246094 C 243.605469 243.015625 243.871094 238.757812 243.765625 232.6875 L 237.421875 232.390625 C 227.785156 231.9375 220.339844 223.757812 220.792969 214.117188 C 220.886719 212.046875 221.351562 210.011719 222.160156 208.101562 L 224.644531 202.253906 L 218.96875 199.402344 C 210.347656 195.070312 206.875 184.566406 211.203125 175.941406 C 212.140625 174.089844 213.386719 172.417969 214.902344 171 L 219.550781 166.667969 L 215.523438 161.753906 C 209.414062 154.289062 210.511719 143.28125 217.972656 137.164062 C 219.570312 135.851562 221.398438 134.832031 223.355469 134.160156 L 229.367188 132.089844 L 227.6875 125.960938 C 225.136719 116.65625 230.613281 107.042969 239.914062 104.496094 C 241.914062 103.945312 243.996094 103.757812 246.0625 103.9375 L 252.386719 104.5 L 253.347656 98.214844 C 254.804688 88.675781 263.710938 82.121094 273.25 83.578125 C 275.292969 83.890625 277.273438 84.566406 279.085938 85.574219 L 284.640625 88.65625 L 288.070312 83.308594 C 293.277344 75.183594 304.082031 72.820312 312.199219 78.03125 C 313.941406 79.148438 315.472656 80.574219 316.71875 82.230469 L 320.542969 87.304688 L 325.851562 83.8125 C 333.910156 78.515625 344.738281 80.753906 350.039062 88.816406 C 351.179688 90.550781 351.996094 92.472656 352.46875 94.492188 L 353.890625 100.683594 L 360.160156 99.652344 C 369.679688 98.089844 378.664062 104.542969 380.222656 114.066406 C 380.558594 116.113281 380.53125 118.199219 380.132812 120.234375 L 378.917969 126.476562 L 385.066406 128.085938 C 394.394531 130.53125 399.980469 140.078125 397.535156 149.414062 C 397.007812 151.417969 396.132812 153.316406 394.945312 155.011719 L 391.296875 160.21875 L 396.253906 164.191406 C 403.78125 170.222656 405 181.214844 398.976562 188.75 C 397.679688 190.371094 396.105469 191.742188 394.328125 192.808594 L 388.882812 196.085938 L 391.800781 201.734375 C 396.226562 210.304688 392.875 220.84375 384.300781 225.273438 C 382.457031 226.222656 380.460938 226.839844 378.40625 227.09375 L 372.097656 227.863281 L 372.472656 234.207031 C 373.023438 243.84375 365.671875 252.109375 356.046875 252.667969 C 353.972656 252.785156 351.902344 252.539062 349.917969 251.929688 L 343.839844 250.066406 L 341.597656 256.015625 C 338.195312 265.042969 328.117188 269.597656 319.09375 266.191406 C 317.152344 265.460938 315.363281 264.390625 313.796875 263.03125 L 309.003906 258.855469 L 304.539062 263.375 C 297.757812 270.234375 286.695312 270.300781 279.839844 263.515625 Z M 318.757812 161.113281 L 319.671875 161.496094 L 319.074219 161.21875 Z M 301.488281 200.519531 C 315.296875 202.328125 327.71875 195.390625 333.15625 182.441406 C 334.6875 178.789062 334.582031 177.773438 335.195312 173.785156 C 333.542969 172.703125 331.765625 171.792969 330.222656 170.542969 C 328.695312 169.308594 327.792969 167.261719 326.339844 165.917969 C 321.933594 161.839844 316.773438 159.914062 310.886719 159.785156 C 302.402344 160.550781 297.933594 163.492188 293.226562 170.480469 C 292.546875 171.492188 291.148438 174.691406 290.964844 175.914062 C 290.632812 178.183594 290.445312 180.476562 290.476562 182.765625 C 290.488281 183.917969 290.882812 185.03125 291.089844 186.160156 C 291.59375 188.042969 292.523438 189.832031 292.882812 191.753906 C 293 192.359375 292.839844 192.988281 292.894531 193.601562 C 292.953125 194.214844 293.226562 194.796875 293.234375 195.414062 C 293.238281 196.171875 292.914062 196.914062 292.917969 197.679688 C 294.140625 198.339844 293.257812 197.882812 295.644531 198.910156 L 295.816406 199.003906 C 299.570312 200.207031 297.675781 199.707031 301.488281 200.519531 " fill-opacity="1" fill-rule="nonzero"/><path fill="#ebc817" d="M 261.335938 238.738281 L 260.945312 215.996094 L 238.238281 214.933594 L 247.128906 193.996094 L 226.808594 183.78125 L 243.445312 168.273438 L 229.039062 150.679688 L 250.535156 143.277344 L 244.527344 121.34375 L 267.179688 123.332031 L 270.609375 100.847656 L 290.496094 111.882812 L 302.769531 92.738281 L 316.445312 110.90625 L 335.449219 98.410156 L 340.550781 120.574219 L 362.992188 116.894531 L 358.640625 139.222656 L 380.636719 144.988281 L 367.59375 163.609375 L 385.339844 177.828125 L 365.847656 189.535156 L 376.28125 209.746094 L 353.714844 212.511719 L 355.03125 235.222656 L 333.289062 228.558594 L 325.257812 249.84375 L 308.105469 234.910156 L 292.117188 251.085938 L 282.519531 230.46875 Z M 275.765625 195.242188 L 275.355469 194.28125 C 274.980469 193.109375 274.550781 191.953125 274.234375 190.761719 C 272.101562 182.746094 272.660156 174.226562 275.707031 166.527344 C 283.617188 146.789062 306.03125 137.203125 325.761719 145.113281 C 332.25 147.910156 337.964844 152.011719 342.210938 157.726562 L 342.417969 158.03125 C 338.113281 147.949219 331.25 140.90625 321.074219 136.671875 C 301.34375 128.757812 278.9375 138.34375 271.023438 158.082031 C 266.152344 171.175781 267.761719 183.800781 275.765625 195.242188 Z M 288.734375 214.953125 C 264.839844 205.363281 253.230469 178.210938 262.8125 154.304688 C 272.394531 130.390625 299.539062 118.78125 323.441406 128.367188 C 347.339844 137.957031 358.945312 165.109375 349.363281 189.019531 C 339.777344 212.929688 312.632812 224.539062 288.734375 214.953125 Z M 286.660156 220.125 C 313.417969 230.859375 343.800781 217.863281 354.527344 191.097656 C 365.257812 164.332031 352.265625 133.929688 325.507812 123.195312 C 298.757812 112.464844 268.371094 125.464844 257.644531 152.226562 C 246.910156 178.996094 259.90625 209.390625 286.660156 220.125 " fill-opacity="1" fill-rule="nonzero"/><path fill="#f3f6f8" d="M 183.671875 338.488281 C 181.800781 338.46875 179.925781 338.441406 178.050781 338.304688 L 112.824219 338.214844 C 75.367188 338.214844 45 307.839844 45 270.367188 L 45.007812 269.910156 C 45.890625 241.640625 62.941406 216.84375 89.5 206.753906 C 104.386719 157.777344 154.691406 130.71875 204.144531 141.390625 C 228.210938 146.585938 249.0625 161.367188 263.882812 180.78125 C 266.285156 180.257812 268.765625 180.019531 271.226562 180.019531 C 298.230469 180.53125 322.796875 198.902344 328.289062 225.847656 C 331.8125 226.828125 335.460938 227.425781 338.855469 228.789062 C 353.082031 234.527344 368.597656 246.074219 373.34375 261.457031 L 377.15625 279.382812 C 377.261719 281.207031 377.253906 280.488281 377.253906 281.546875 C 377.253906 313.265625 350.285156 338.488281 317.5625 338.488281 L 189.363281 338.316406 L 188.921875 338.359375 Z M 179.523438 303.359375 C 182.226562 303.621094 184.980469 303.632812 187.6875 303.371094 L 188.546875 303.371094 L 317.582031 303.542969 C 334.742188 302.894531 347.066406 288.742188 340.15625 272.5 C 338.585938 269.269531 334.75 265.695312 329.6875 263.019531 L 327.917969 262.195312 C 324.492188 268.628906 326.402344 265.53125 322.167969 271.484375 L 291.527344 256.179688 C 292.734375 251.734375 293.671875 247.808594 294.320312 244.59375 C 297.34375 229.148438 290.089844 220.738281 276.03125 215.449219 C 274.617188 215.007812 273.078125 215.148438 271.601562 215 C 268.558594 215.207031 265.566406 215.839844 262.660156 216.738281 C 256.574219 219.160156 251.332031 222.246094 246.65625 227.304688 L 218.203125 207.65625 C 220.773438 202.410156 224.445312 197.816406 228.445312 193.59375 C 218.632812 183.4375 204.949219 175.617188 190.609375 174.542969 C 186.480469 174.234375 182.332031 174.304688 178.1875 174.183594 C 162.410156 175.617188 147.691406 181.445312 136.578125 193.050781 C 134.0625 195.675781 132.097656 198.785156 129.859375 201.652344 C 135.691406 203.367188 132.5625 202.324219 139.203125 204.902344 C 143.050781 206.53125 146.699219 208.398438 150.132812 210.535156 L 135.96875 242.128906 C 127.949219 239.765625 121.304688 238.464844 115.898438 237.996094 C 112.390625 237.691406 109.960938 237.761719 108.171875 238.019531 C 107.835938 238.066406 106.445312 238.328125 106.226562 238.363281 C 87.394531 241.265625 75.96875 262.503906 81.410156 280.152344 C 85.839844 294.511719 98.3125 302.539062 112.847656 303.269531 L 178.648438 303.359375 L 179.523438 303.359375 " fill-opacity="1" fill-rule="nonzero"/><path fill="#6ea4dd" d="M 183.632812 321.019531 C 181.964844 320.984375 180.292969 321.003906 178.628906 320.835938 L 112.828125 320.746094 C 85.019531 320.746094 62.472656 298.191406 62.472656 270.367188 C 63.058594 247.753906 76.398438 229.519531 97.851562 222.253906 C 99.671875 221.644531 101.6875 221.394531 103.503906 221.109375 C 105.316406 220.820312 115.804688 217.96875 140.90625 225.367188 C 125.273438 215.632812 105.351562 214.582031 105.53125 213.90625 C 116.554688 172.460938 158.496094 149.632812 200.546875 158.488281 C 224.636719 163.5625 242.625 180.507812 252.898438 195.152344 C 253.160156 195.527344 239.257812 204.5625 233.839844 215.441406 C 242.433594 206.152344 252.554688 201.964844 256.207031 200.507812 C 259.863281 199.058594 266.121094 197.816406 271.230469 197.492188 C 294.054688 197.492188 312.554688 216.007812 312.554688 238.839844 C 312.554688 238.839844 312.433594 241.246094 312.375 242.460938 C 312.3125 243.671875 311.28125 250.109375 308.386719 260.761719 C 316.007812 250.945312 316.457031 242.40625 316.8125 242.363281 C 328.027344 241.007812 348.691406 250.117188 355.867188 264.851562 C 357.855469 268.941406 358.644531 273.105469 359.578125 277.519531 L 359.578125 277.582031 L 359.792969 277.605469 C 359.65625 278.921875 359.71875 280.238281 359.792969 281.550781 C 359.792969 303.347656 340.894531 321.019531 317.589844 321.019531 L 188.53125 320.84375 L 187.859375 320.914062 L 183.632812 321.019531 " fill-opacity="1" fill-rule="nonzero"/><g clip-path="url(#id1)"><path fill="#f3f6f8" d="M 223.253906 377.3125 L 147.878906 377.214844 C 146.367188 377.28125 147.425781 377.238281 144.707031 377.304688 L 144.339844 377.28125 L 143.96875 377.308594 C 141.949219 377.277344 142.984375 377.308594 140.863281 377.203125 L 102.476562 377.152344 L 102.054688 377.152344 C 75.566406 376.484375 56.460938 356.5625 55.339844 330.40625 C 55.324219 329.902344 55.335938 329.394531 55.363281 328.890625 C 56.105469 311.121094 66.515625 294.417969 82.96875 287.125 C 94.527344 255.589844 125.320312 241.15625 157.453125 246.800781 C 157.765625 246.859375 158.078125 246.925781 158.386719 247 C 172.476562 250.3125 185.445312 258.390625 194.679688 269.558594 C 195.746094 269.5 195.179688 269.511719 196.371094 269.511719 C 213.84375 269.695312 229.925781 281.214844 235.460938 297.832031 C 246.550781 301.183594 255.128906 308.457031 261.121094 318.226562 C 261.433594 318.792969 261.714844 319.375 261.964844 319.972656 C 263.527344 323.328125 264.332031 326.96875 265.128906 330.566406 C 265.773438 332.324219 265.644531 334.25 265.574219 336.097656 L 265.621094 335.859375 C 265.007812 360.980469 247.738281 375.265625 223.691406 377.3125 Z M 189.101562 305.9375 L 188.871094 306.34375 L 189.175781 305.996094 Z M 202.851562 311.808594 L 202.898438 311.875 L 202.851562 311.527344 Z M 147.175781 342.269531 L 223.277344 342.367188 C 227.070312 341.878906 224.949219 342.449219 229.417969 339.972656 C 230.902344 337.15625 230.6875 338.492188 230.652344 336.121094 C 228.277344 338.894531 224.699219 340.785156 221.125 341.460938 C 219.425781 341.78125 217.671875 341.601562 215.945312 341.671875 L 213.332031 341.175781 C 204.011719 338.6875 198.480469 329.105469 200.976562 319.78125 C 201.949219 316.269531 203.03125 312.796875 202.515625 309.136719 L 199.074219 305.136719 L 196.390625 304.472656 C 192.46875 304.773438 189.105469 306.949219 186.429688 309.714844 C 180.953125 315.382812 172.363281 316.675781 165.457031 312.875 C 157.007812 308.226562 153.925781 297.597656 158.578125 289.144531 C 160.363281 286.117188 159.5625 287.265625 160.796875 285.578125 C 155.804688 281.816406 149.871094 280.613281 143.777344 280.304688 C 136.949219 280.382812 130.046875 282.265625 124.660156 286.601562 C 126.671875 287.582031 125.613281 287.027344 127.820312 288.300781 C 134.75 292.324219 138.058594 300.539062 135.847656 308.246094 C 133.1875 317.519531 123.515625 322.878906 114.242188 320.21875 C 110.125 319.039062 105.90625 317.964844 101.601562 317.894531 C 100.566406 317.949219 101.304688 317.890625 99.40625 318.207031 L 99.292969 318.152344 C 92.820312 319.777344 90.878906 324.761719 90.242188 330.792969 C 90.46875 337.382812 96.277344 342.019531 102.523438 342.207031 L 141.335938 342.261719 L 144.742188 342.355469 Z M 90.210938 329.734375 L 90.238281 330.570312 L 90.253906 329.527344 Z M 222.863281 342.371094 L 222.90625 342.417969 L 223.277344 342.367188 L 222.863281 342.371094 " fill-opacity="1" fill-rule="nonzero"/></g><path fill="#aed6f2" d="M 144.261719 359.84375 C 143.277344 359.824219 142.292969 359.835938 141.3125 359.738281 L 102.496094 359.679688 C 86.09375 359.679688 72.796875 346.378906 72.796875 329.972656 C 73.144531 316.628906 81.007812 305.875 93.664062 301.589844 C 94.734375 301.226562 95.925781 301.082031 96.996094 300.910156 C 98.066406 300.738281 104.257812 299.0625 119.058594 303.421875 C 109.835938 297.683594 98.085938 297.058594 98.195312 296.664062 C 104.695312 272.21875 129.4375 258.753906 154.238281 263.976562 C 168.449219 266.96875 179.058594 276.96875 185.121094 285.601562 C 185.273438 285.824219 177.074219 291.152344 173.875 297.570312 C 178.945312 292.089844 184.914062 289.621094 187.070312 288.757812 C 189.226562 287.90625 192.917969 287.175781 195.929688 286.980469 C 209.394531 286.980469 220.308594 297.898438 220.308594 311.371094 C 220.308594 311.371094 220.234375 312.789062 220.199219 313.507812 C 220.164062 314.21875 219.554688 318.015625 217.84375 324.300781 C 222.34375 318.511719 222.605469 313.476562 222.816406 313.449219 C 229.433594 312.652344 241.625 318.023438 245.851562 326.714844 C 247.027344 329.128906 247.492188 331.582031 248.039062 334.183594 L 248.042969 334.222656 L 248.167969 334.242188 C 248.085938 335.015625 248.125 335.789062 248.167969 336.5625 C 248.167969 349.417969 237.023438 359.84375 223.273438 359.84375 L 147.152344 359.742188 L 146.753906 359.78125 L 144.261719 359.84375 " fill-opacity="1" fill-rule="nonzero"/></svg>