<svg xmlns="http://www.w3.org/2000/svg" xmlns:xlink="http://www.w3.org/1999/xlink" width="600" zoomAndPan="magnify" viewBox="0 0 450 449.999984" height="600" preserveAspectRatio="xMidYMid meet" version="1.0"><defs><clipPath id="id1"><path d="M 161 257 L 257 257 L 257 379.859375 L 161 379.859375 Z M 161 257 " clip-rule="nonzero"/></clipPath><clipPath id="id2"><path d="M 45 70.109375 L 405 70.109375 L 405 287 L 45 287 Z M 45 70.109375 " clip-rule="nonzero"/></clipPath></defs><g clip-path="url(#id1)"><path fill="#f3f6f8" d="M 202.207031 379.769531 C 198.375 379.847656 194.617188 379.3125 190.847656 378.722656 C 190.109375 378.589844 189.382812 378.402344 188.664062 378.179688 C 171.5 372.851562 163.035156 357.800781 161.972656 340.714844 C 161.957031 340.191406 161.957031 339.664062 161.984375 339.136719 C 162.09375 330.496094 165.355469 322.492188 169.046875 314.839844 C 169.324219 314.265625 169.632812 313.703125 169.96875 313.160156 C 171.734375 310.3125 170.875 311.625 172.527344 309.203125 C 172.730469 308.914062 172.949219 308.625 173.167969 308.351562 C 187.171875 290.085938 208.53125 279.859375 224.355469 263.46875 C 231.65625 255.996094 243.636719 255.851562 251.113281 263.152344 C 255.890625 267.828125 257.855469 274.679688 256.273438 281.175781 C 250.582031 300.394531 251.285156 320.738281 245.945312 340.007812 C 245.851562 340.328125 245.753906 340.644531 245.648438 340.960938 C 243.984375 345.832031 244.921875 343.261719 242.789062 348.667969 C 242.613281 349.117188 242.417969 349.554688 242.203125 349.988281 C 238.355469 359.050781 231.199219 365.703125 223.898438 372.03125 C 222.109375 373.589844 220.039062 374.792969 217.808594 375.585938 C 213.835938 377.617188 209.539062 378.566406 205.300781 379.601562 L 204.832031 379.574219 L 202.207031 379.769531 " fill-opacity="1" fill-rule="nonzero"/></g><path fill="#f3f6f8" d="M 118.980469 355.433594 C 115.960938 355.5 113 355.050781 110.027344 354.597656 C 109.285156 354.457031 108.550781 354.273438 107.828125 354.042969 C 93.070312 349.347656 85.679688 336.644531 85.039062 321.8125 C 85.039062 321.3125 85.0625 320.804688 85.101562 320.300781 C 85.378906 313.632812 87.769531 307.402344 90.609375 301.453125 C 90.878906 300.898438 91.179688 300.351562 91.503906 299.816406 C 92.519531 298.160156 91.933594 299.089844 93.28125 297.042969 C 93.566406 296.613281 93.878906 296.195312 94.203125 295.789062 C 104.238281 282.519531 119.648438 275.085938 131.113281 263.304688 C 138.507812 255.921875 150.488281 255.929688 157.871094 263.316406 C 162.539062 267.992188 164.433594 274.753906 162.867188 281.167969 C 159.089844 294.875 159.058594 309.167969 155.550781 322.917969 C 155.441406 323.332031 155.320312 323.742188 155.179688 324.144531 C 153.964844 327.699219 154.660156 325.777344 153.054688 329.886719 C 152.875 330.332031 152.675781 330.773438 152.460938 331.210938 C 149.394531 338.3125 143.84375 343.664062 138.085938 348.632812 C 136.308594 350.171875 134.253906 351.359375 132.035156 352.148438 C 128.875 353.722656 125.4375 354.445312 122.070312 355.265625 L 121.605469 355.242188 L 118.980469 355.433594 " fill-opacity="1" fill-rule="nonzero"/><path fill="#f3f6f8" d="M 298.492188 355.433594 C 295.46875 355.5 292.511719 355.050781 289.535156 354.597656 C 288.796875 354.460938 288.066406 354.273438 287.339844 354.042969 C 272.585938 349.347656 265.191406 336.644531 264.554688 321.8125 C 264.554688 321.3125 264.570312 320.804688 264.613281 320.304688 C 264.890625 313.632812 267.28125 307.40625 270.125 301.457031 C 270.394531 300.898438 270.6875 300.351562 271.015625 299.816406 C 272.03125 298.160156 271.445312 299.09375 272.792969 297.042969 C 273.082031 296.613281 273.386719 296.195312 273.710938 295.789062 C 283.75 282.519531 299.160156 275.085938 310.628906 263.304688 C 318.023438 255.921875 330 255.929688 337.382812 263.316406 C 342.050781 267.992188 343.945312 274.757812 342.382812 281.171875 C 338.605469 294.875 338.570312 309.167969 335.066406 322.917969 C 334.957031 323.332031 334.832031 323.742188 334.691406 324.144531 C 333.476562 327.699219 334.175781 325.777344 332.5625 329.886719 C 332.382812 330.332031 332.191406 330.777344 331.976562 331.210938 C 328.902344 338.3125 323.355469 343.664062 317.601562 348.632812 C 315.816406 350.171875 313.769531 351.359375 311.546875 352.148438 C 308.386719 353.722656 304.949219 354.445312 301.585938 355.265625 L 301.117188 355.242188 L 298.492188 355.433594 " fill-opacity="1" fill-rule="nonzero"/><g clip-path="url(#id2)"><path fill="#f3f6f8" d="M 340.273438 286.167969 L 201.308594 285.980469 C 198.71875 286.132812 200.597656 286.035156 195.664062 286.160156 L 195.265625 286.128906 L 194.871094 286.164062 C 191.195312 286.101562 193.0625 286.167969 189.261719 285.964844 L 118.457031 285.863281 L 118.003906 285.863281 C 76.523438 284.878906 46.582031 253.953125 45.019531 212.886719 C 45.011719 212.453125 45.011719 212.011719 45.03125 211.578125 C 46.308594 179.410156 63.585938 156.246094 92.761719 143.652344 L 93.125 143.519531 C 106.175781 100.226562 145.960938 71.472656 191.113281 70.355469 C 199.875 70.132812 208.402344 71.132812 216.996094 72.671875 C 243.605469 77.75 265.367188 94.9375 282.183594 115.386719 C 286.453125 114.78125 284.339844 115.027344 288.523438 114.648438 C 289.199219 114.589844 289.878906 114.570312 290.554688 114.589844 C 319.636719 114.839844 345.820312 135.605469 352.085938 164.105469 C 370.894531 168.511719 390.351562 179.984375 398.785156 198.171875 C 401.398438 203.796875 403.894531 211.222656 404.71875 217.339844 C 405.015625 219.523438 404.628906 221.621094 404.925781 223.753906 C 404.941406 224.179688 404.949219 224.601562 404.933594 225.023438 C 402.476562 262.695312 377.132812 283.296875 340.746094 286.167969 Z M 200.519531 248.148438 L 340 248.332031 C 353.589844 248.355469 367.367188 238.847656 366.886719 224.105469 C 366.816406 221.960938 366.046875 217.246094 364.746094 214.808594 C 361.898438 209.464844 356.890625 206.246094 351.664062 203.570312 C 350.007812 207.027344 347.816406 210.183594 345.546875 213.25 C 340.921875 219.503906 332.953125 222.289062 325.441406 220.285156 C 315.34375 217.578125 309.355469 207.207031 312.054688 197.117188 C 313.554688 189.992188 316.679688 182.65625 315.800781 175.242188 C 314.261719 162.316406 303.277344 152.761719 290.410156 152.429688 C 279.777344 153.292969 270.527344 158.488281 263.175781 166.089844 C 257.242188 172.222656 247.929688 173.625 240.453125 169.511719 C 231.296875 164.472656 227.964844 152.964844 233 143.816406 C 235.707031 138.367188 239.707031 133.824219 243.679688 129.292969 L 243.871094 129.105469 C 228.433594 114.347656 214.585938 108.9375 193.476562 108.113281 C 171.027344 108.570312 149.285156 118.695312 136.914062 137.890625 C 144.472656 140.03125 151.609375 143.378906 158.390625 147.308594 C 165.894531 151.667969 169.480469 160.5625 167.085938 168.902344 C 164.203125 178.945312 153.722656 184.75 143.679688 181.863281 C 135.359375 179.40625 126.824219 177.472656 118.128906 177.148438 L 116.691406 177.148438 C 97.84375 177.417969 82.316406 194.546875 82.828125 213.304688 C 83.371094 233.265625 99.230469 247.542969 118.730469 248.035156 L 189.792969 248.128906 L 195.683594 248.308594 Z M 315.949219 177.546875 L 315.9375 178.746094 L 315.964844 177.875 L 315.949219 177.546875 " fill-opacity="1" fill-rule="nonzero"/></g><path fill="#6ea4dd" d="M 195.375 350.320312 C 194.515625 348.023438 194.167969 345.597656 193.710938 343.203125 C 193.566406 338.566406 193.316406 336.296875 195.378906 331.425781 C 198.976562 322.933594 208.121094 315.367188 214.152344 309.070312 C 216.765625 306.347656 219.382812 303.613281 221.863281 300.730469 C 225.320312 296.714844 228.316406 292.410156 231.175781 287.960938 L 231.253906 287.859375 C 231.96875 286.921875 232.527344 285.863281 233.167969 284.871094 C 229.511719 291.226562 223.972656 296.144531 218.578125 300.992188 C 210.109375 308.355469 206.261719 310.441406 198.78125 318.195312 C 194.71875 322.410156 190.066406 329.003906 189.085938 334.984375 C 188.839844 336.496094 188.738281 338.015625 188.835938 339.453125 C 189.164062 344.328125 192.011719 348.128906 195.375 350.320312 Z M 202.710938 360.859375 C 200.019531 360.769531 197.019531 360.816406 194.378906 360.136719 C 185.628906 357.886719 180.871094 348.472656 180.882812 340.078125 C 180.894531 333.855469 183.363281 328.589844 186.058594 323.121094 C 186.695312 322.125 187.257812 321.066406 187.964844 320.132812 C 193.171875 313.320312 198.039062 309.226562 204.464844 304.203125 C 215.769531 295.367188 227.636719 287.460938 237.894531 276.6875 C 235.710938 285.050781 234.128906 293.304688 232.96875 301.667969 C 231.503906 312.265625 230.921875 324.285156 227.746094 334.84375 C 227.054688 337.136719 226.160156 339.398438 225.222656 341.640625 C 224.769531 342.730469 224.136719 343.742188 223.597656 344.789062 C 220.78125 350.285156 216.003906 353.765625 211.496094 357.746094 L 202.710938 360.859375 " fill-opacity="1" fill-rule="nonzero"/><path fill="#6ea4dd" d="M 293.777344 329.03125 C 293.183594 327.394531 292.910156 325.675781 292.59375 323.972656 C 292.492188 320.679688 292.316406 319.066406 293.777344 315.597656 C 296.339844 309.566406 302.839844 304.183594 307.128906 299.710938 C 308.984375 297.769531 310.847656 295.828125 312.609375 293.78125 C 315.605469 290.300781 318.316406 286.519531 320.644531 282.503906 C 318.046875 287.023438 314.105469 290.519531 310.273438 293.964844 C 304.25 299.199219 301.515625 300.6875 296.199219 306.195312 C 293.308594 309.1875 290.007812 313.882812 289.304688 318.132812 C 289.132812 319.203125 289.0625 320.285156 289.132812 321.304688 C 289.363281 324.773438 291.390625 327.472656 293.777344 329.03125 Z M 298.992188 336.523438 C 297.082031 336.457031 294.949219 336.496094 293.074219 336.015625 C 287.011719 334.449219 283.25 327.691406 283.480469 321.75 C 283.652344 317.21875 285.183594 313.695312 287.15625 309.695312 C 287.605469 308.988281 288.007812 308.238281 288.515625 307.570312 C 292.210938 302.730469 295.671875 299.816406 300.238281 296.246094 C 308.28125 289.96875 316.710938 284.351562 324.003906 276.6875 C 322.457031 282.632812 321.332031 288.496094 320.503906 294.445312 C 319.460938 301.980469 319.046875 310.53125 316.792969 318.027344 C 316.296875 319.660156 315.660156 321.269531 315 322.863281 C 314.679688 323.632812 314.226562 324.355469 313.839844 325.105469 C 311.828125 329.003906 308.460938 331.492188 305.238281 334.3125 L 298.992188 336.523438 " fill-opacity="1" fill-rule="nonzero"/><path fill="#6ea4dd" d="M 114.265625 329.03125 C 113.671875 327.394531 113.398438 325.675781 113.078125 323.972656 C 112.976562 320.679688 112.796875 319.066406 114.265625 315.597656 C 116.820312 309.566406 123.320312 304.183594 127.613281 299.710938 C 129.472656 297.773438 131.332031 295.832031 133.09375 293.78125 C 136.089844 290.300781 138.800781 286.519531 141.128906 282.507812 C 138.53125 287.023438 134.59375 290.519531 130.757812 293.96875 C 124.730469 299.199219 122 300.6875 116.6875 306.195312 C 113.796875 309.1875 110.488281 313.882812 109.792969 318.132812 C 109.617188 319.203125 109.550781 320.285156 109.613281 321.304688 C 109.851562 324.773438 111.871094 327.472656 114.265625 329.03125 Z M 119.476562 336.527344 C 117.5625 336.457031 115.433594 336.496094 113.554688 336.015625 C 107.492188 334.449219 103.734375 327.695312 103.960938 321.753906 C 104.136719 317.21875 105.667969 313.695312 107.640625 309.695312 C 108.09375 308.988281 108.488281 308.238281 109 307.570312 C 112.695312 302.734375 116.15625 299.820312 120.722656 296.25 C 128.761719 289.972656 137.191406 284.351562 144.488281 276.6875 C 142.9375 282.632812 141.816406 288.5 140.988281 294.445312 C 139.949219 301.980469 139.53125 310.53125 137.273438 318.027344 C 136.785156 319.660156 136.148438 321.269531 135.484375 322.863281 C 135.164062 323.632812 134.710938 324.355469 134.324219 325.105469 C 132.3125 329.003906 128.945312 331.492188 125.722656 334.3125 L 119.476562 336.527344 " fill-opacity="1" fill-rule="nonzero"/><path fill="#6ea4dd" d="M 195.1875 267.246094 C 193.375 267.207031 191.570312 267.226562 189.769531 267.046875 L 118.480469 266.949219 C 88.355469 266.949219 63.933594 242.53125 63.933594 212.40625 C 64.570312 187.914062 79.015625 168.179688 102.261719 160.3125 C 104.234375 159.644531 106.417969 159.375 108.378906 159.066406 C 110.34375 158.753906 121.710938 155.671875 148.898438 163.679688 C 131.960938 153.136719 110.382812 151.996094 110.574219 151.265625 C 122.519531 106.390625 167.957031 81.679688 213.511719 91.265625 C 239.609375 96.761719 259.09375 115.105469 270.222656 130.964844 C 270.503906 131.367188 255.445312 141.152344 249.578125 152.933594 C 258.886719 142.875 269.84375 138.335938 273.804688 136.761719 C 277.765625 135.1875 284.546875 133.847656 290.078125 133.496094 C 314.804688 133.496094 334.847656 153.539062 334.847656 178.269531 C 334.847656 178.269531 334.722656 180.867188 334.648438 182.1875 C 334.585938 183.5 333.464844 190.46875 330.332031 202.003906 C 338.589844 191.375 339.074219 182.125 339.460938 182.078125 C 351.617188 180.609375 373.996094 190.480469 381.769531 206.433594 C 383.921875 210.859375 384.78125 215.363281 385.785156 220.140625 L 385.792969 220.214844 L 386.019531 220.242188 C 385.875 221.664062 385.941406 223.089844 386.019531 224.511719 C 386.019531 248.109375 365.554688 267.246094 340.304688 267.246094 L 200.492188 267.058594 L 199.765625 267.132812 L 195.1875 267.246094 " fill-opacity="1" fill-rule="nonzero"/></svg>