<svg xmlns="http://www.w3.org/2000/svg" xmlns:xlink="http://www.w3.org/1999/xlink" width="600" zoomAndPan="magnify" viewBox="0 0 450 449.999984" height="600" preserveAspectRatio="xMidYMid meet" version="1.0"><path fill="#f3f6f8" d="M 196.785156 400.710938 L 192.339844 400.570312 L 188.640625 400.570312 C 188.449219 400.363281 188.199219 400.476562 187.976562 400.425781 C 183.21875 398.308594 185.71875 399.375 180.472656 397.246094 C 180.082031 396.863281 180.308594 397.015625 179.800781 396.789062 C 170.109375 388.722656 168.277344 378.433594 163.121094 366.179688 L 141.894531 373.558594 C 129.851562 377.742188 116.703125 371.378906 112.519531 359.347656 C 111.617188 356.761719 111.1875 354.035156 111.242188 351.300781 L 111.703125 328.839844 L 89.308594 326.953125 C 76.609375 325.875 67.1875 314.714844 68.257812 302.023438 C 68.488281 299.300781 69.207031 296.632812 70.367188 294.15625 L 79.925781 273.824219 L 60.238281 262.992188 C 49.074219 256.847656 45.003906 242.828125 51.148438 231.65625 C 52.46875 229.265625 54.207031 227.121094 56.277344 225.332031 L 73.285156 210.644531 L 59.703125 192.746094 C 52.007812 182.589844 53.996094 168.121094 64.148438 160.425781 C 66.332031 158.773438 68.789062 157.523438 71.410156 156.730469 L 92.921875 150.226562 L 87.796875 128.351562 C 84.898438 115.945312 92.601562 103.539062 105.007812 100.636719 C 107.679688 100.011719 110.433594 99.867188 113.148438 100.207031 L 135.445312 103.011719 L 139.667969 80.945312 C 142.066406 68.4375 154.148438 60.234375 166.671875 62.628906 C 169.355469 63.140625 171.933594 64.132812 174.28125 65.546875 L 193.503906 77.175781 L 206.339844 58.734375 C 213.617188 48.28125 228 45.699219 238.460938 52.976562 C 240.710938 54.539062 242.660156 56.488281 244.222656 58.734375 L 257.0625 77.175781 L 276.285156 65.546875 C 287.191406 58.953125 301.378906 62.441406 307.980469 73.34375 C 309.390625 75.683594 310.378906 78.261719 310.894531 80.945312 L 315.117188 103.011719 L 337.414062 100.207031 C 350.058594 98.621094 361.597656 107.582031 363.191406 120.210938 C 363.53125 122.929688 363.386719 125.6875 362.769531 128.351562 L 357.644531 150.226562 L 379.15625 156.730469 C 391.355469 160.417969 398.25 173.292969 394.5625 185.480469 C 393.765625 188.101562 392.515625 190.5625 390.863281 192.746094 L 377.28125 210.644531 L 394.289062 225.332031 C 403.925781 233.660156 404.996094 248.226562 396.664062 257.863281 C 394.871094 259.9375 392.726562 261.671875 390.328125 262.992188 L 370.640625 273.824219 L 380.199219 294.15625 C 385.617188 305.683594 380.664062 319.421875 369.128906 324.84375 C 366.652344 326.003906 363.984375 326.71875 361.253906 326.953125 L 338.863281 328.839844 L 339.324219 351.300781 C 339.582031 364.035156 329.464844 374.574219 316.722656 374.832031 C 313.988281 374.886719 311.261719 374.460938 308.675781 373.558594 L 287.449219 366.179688 L 278.726562 386.882812 C 273.78125 398.625 260.253906 404.140625 248.507812 399.195312 C 245.984375 398.132812 243.675781 396.632812 241.671875 394.761719 L 225.285156 379.390625 C 215.496094 389.203125 209.738281 396.84375 197.585938 400.570312 L 197.167969 400.570312 Z M 221.210938 292.183594 C 252.929688 293.601562 281.769531 273.875 290.296875 242.902344 C 294.761719 226.683594 292.773438 212.148438 286.554688 196.722656 L 286.269531 196.179688 L 280.859375 197.226562 C 277.929688 196.648438 274.925781 196.363281 272.074219 195.488281 C 269.816406 194.796875 264.082031 191.046875 261.320312 189.933594 C 254.582031 187.21875 247.289062 186.039062 240.035156 185.996094 C 234.863281 186.171875 229.761719 187.0625 224.859375 188.722656 C 197.59375 198.019531 183.378906 228.050781 192.953125 255 C 194.707031 259.945312 197.214844 264.730469 200.46875 268.855469 C 202.410156 271.316406 205.242188 273.960938 206.96875 276.554688 C 207.394531 277.1875 207.480469 277.996094 207.835938 278.671875 C 208.1875 279.34375 208.796875 279.875 209.085938 280.578125 C 209.371094 281.277344 209.304688 282.078125 209.515625 282.800781 C 209.730469 283.503906 210.210938 284.121094 210.351562 284.839844 C 210.492188 285.566406 210.28125 286.320312 210.351562 287.054688 C 210.691406 290.578125 211.03125 287.925781 210.5 290.625 L 213.828125 291.367188 L 221.210938 292.183594 " fill-opacity="1" fill-rule="nonzero"/><path fill="#ebc817" d="M 193.105469 377.9375 L 175.992188 337.285156 L 134.3125 351.769531 L 135.21875 307.679688 L 91.25 303.964844 L 110.019531 264.050781 L 71.367188 242.78125 L 104.753906 213.953125 L 78.09375 178.808594 L 120.328125 166.039062 L 110.273438 123.097656 L 154.042969 128.605469 L 162.335938 85.28125 L 200.085938 108.109375 L 225.285156 71.90625 L 250.484375 108.109375 L 288.230469 85.28125 L 296.523438 128.601562 L 340.296875 123.097656 L 330.246094 166.039062 L 372.480469 178.808594 L 345.816406 213.953125 L 379.199219 242.78125 L 340.550781 264.050781 L 359.316406 303.964844 L 315.351562 307.679688 L 316.253906 351.769531 L 274.582031 337.285156 L 257.460938 377.9375 L 225.285156 347.761719 Z M 187.699219 289.25 L 186.269531 287.820312 C 184.746094 285.972656 183.136719 284.203125 181.703125 282.285156 C 172.070312 269.40625 166.933594 253.675781 166.863281 237.613281 C 166.863281 196.382812 200.304688 162.949219 241.554688 162.949219 C 255.261719 163.292969 268.511719 166.546875 280.28125 173.757812 L 280.882812 174.164062 C 265.839844 159.128906 248.410156 151.414062 227.027344 151.136719 C 185.773438 151.136719 152.335938 184.5625 152.335938 225.796875 C 153.023438 252.878906 165.019531 274.4375 187.699219 289.25 Z M 225.285156 315.355469 C 175.320312 315.355469 134.816406 274.867188 134.816406 224.921875 C 134.816406 174.976562 175.320312 134.484375 225.285156 134.484375 C 275.246094 134.484375 315.753906 174.976562 315.753906 224.921875 C 315.753906 274.867188 275.246094 315.355469 225.285156 315.355469 Z M 225.285156 326.160156 C 281.222656 326.160156 326.5625 280.832031 326.5625 224.921875 C 326.5625 169.011719 281.222656 123.683594 225.285156 123.683594 C 169.347656 123.683594 124.007812 169.011719 124.007812 224.921875 C 124.007812 280.832031 169.347656 326.160156 225.285156 326.160156 " fill-opacity="1" fill-rule="nonzero"/></svg>