<svg xmlns="http://www.w3.org/2000/svg" xmlns:xlink="http://www.w3.org/1999/xlink" width="600" zoomAndPan="magnify" viewBox="0 0 450 449.999984" height="600" preserveAspectRatio="xMidYMid meet" version="1.0"><defs><clipPath id="id1"><path d="M 149 208 L 271 208 L 271 395.320312 L 149 395.320312 Z M 149 208 " clip-rule="nonzero"/></clipPath></defs><path fill="#f3f6f8" d="M 340.273438 270.972656 L 201.3125 270.789062 C 198.71875 270.941406 200.597656 270.84375 195.664062 270.96875 L 195.269531 270.9375 L 194.871094 270.972656 C 191.195312 270.910156 193.0625 270.972656 189.261719 270.773438 L 118.457031 270.671875 L 118.007812 270.671875 C 76.527344 269.683594 46.582031 238.746094 45.019531 197.65625 C 45.011719 197.222656 45.011719 196.785156 45.03125 196.347656 C 46.3125 164.167969 63.589844 140.988281 92.765625 128.390625 L 93.125 128.257812 C 106.179688 84.9375 145.964844 56.175781 191.113281 55.050781 C 199.867188 54.839844 208.402344 55.839844 216.996094 57.375 C 243.609375 62.457031 265.371094 79.648438 282.1875 100.105469 C 286.453125 99.507812 284.34375 99.75 288.523438 99.371094 C 289.199219 99.3125 289.878906 99.292969 290.558594 99.308594 C 319.640625 99.566406 345.816406 120.339844 352.089844 148.847656 C 370.894531 153.257812 390.351562 164.738281 398.785156 182.933594 C 401.394531 188.566406 403.890625 195.992188 404.71875 202.117188 C 405.019531 204.300781 404.628906 206.398438 404.925781 208.53125 C 404.945312 208.957031 404.945312 209.382812 404.933594 209.804688 C 402.476562 247.488281 377.132812 268.101562 340.75 270.972656 Z M 200.519531 232.933594 L 340.003906 233.121094 C 353.589844 233.144531 367.371094 223.632812 366.890625 208.878906 C 366.816406 206.734375 366.046875 202.019531 364.75 199.582031 C 361.898438 194.242188 356.894531 191.015625 351.667969 188.339844 C 350.015625 191.800781 347.820312 194.953125 345.546875 198.023438 C 340.925781 204.28125 332.953125 207.070312 325.4375 205.058594 C 315.347656 202.351562 309.355469 191.980469 312.054688 181.878906 C 313.554688 174.753906 316.679688 167.410156 315.796875 159.996094 C 314.265625 147.0625 303.277344 137.5 290.417969 137.175781 C 279.777344 138.035156 270.527344 143.234375 263.175781 150.835938 C 257.242188 156.976562 247.9375 158.378906 240.457031 154.261719 C 231.300781 149.222656 227.960938 137.714844 233 128.554688 C 235.707031 123.101562 239.703125 118.550781 243.679688 114.023438 L 243.871094 113.835938 C 228.429688 99.078125 214.585938 93.65625 193.480469 92.835938 C 171.027344 93.296875 149.285156 103.425781 136.914062 122.625 C 144.476562 124.769531 151.613281 128.121094 158.386719 132.050781 C 165.898438 136.40625 169.484375 145.308594 167.089844 153.652344 C 164.203125 163.699219 153.726562 169.507812 143.683594 166.621094 C 135.363281 164.160156 126.828125 162.222656 118.132812 161.902344 L 116.695312 161.902344 C 97.84375 162.175781 82.320312 179.308594 82.832031 198.074219 C 83.371094 218.046875 99.234375 232.332031 118.734375 232.820312 L 189.792969 232.917969 L 195.683594 233.097656 Z M 315.949219 162.304688 L 315.9375 163.5 L 315.964844 162.628906 L 315.949219 162.304688 " fill-opacity="1" fill-rule="nonzero"/><path fill="#4771ac" d="M 195.1875 252.050781 C 193.375 252.011719 191.574219 252.035156 189.769531 251.851562 L 118.484375 251.75 C 88.359375 251.75 63.933594 227.320312 63.933594 197.183594 C 64.570312 172.675781 79.015625 152.929688 102.261719 145.066406 C 104.234375 144.394531 106.417969 144.125 108.382812 143.8125 C 110.347656 143.503906 121.710938 140.421875 148.90625 148.433594 C 131.960938 137.882812 110.382812 136.742188 110.578125 136.015625 C 122.519531 91.113281 167.957031 66.390625 213.515625 75.980469 C 239.613281 81.484375 259.09375 99.839844 270.222656 115.703125 C 270.507812 116.101562 255.445312 125.886719 249.578125 137.679688 C 258.886719 127.617188 269.84375 123.074219 273.808594 121.5 C 277.769531 119.921875 284.554688 118.585938 290.078125 118.238281 C 314.808594 118.238281 334.851562 138.289062 334.851562 163.023438 C 334.851562 163.023438 334.714844 165.628906 334.652344 166.941406 C 334.589844 168.253906 333.46875 175.234375 330.328125 186.777344 C 338.589844 176.140625 339.078125 166.890625 339.464844 166.84375 C 351.613281 165.371094 373.996094 175.242188 381.769531 191.203125 C 383.921875 195.632812 384.785156 200.140625 385.785156 204.921875 L 385.792969 204.996094 L 386.023438 205.019531 C 385.875 206.445312 385.941406 207.867188 386.023438 209.292969 C 386.023438 232.90625 365.554688 252.050781 340.304688 252.050781 L 200.492188 251.863281 L 199.765625 251.929688 L 195.1875 252.050781 " fill-opacity="1" fill-rule="nonzero"/><g clip-path="url(#id1)"><path fill="#f3f6f8" d="M 168.710938 395.292969 C 164.082031 395.042969 162.65625 394.476562 158.949219 392.1875 C 158.160156 391.703125 157.28125 391.367188 156.515625 390.84375 C 155.933594 390.449219 155.367188 389.703125 154.894531 389.167969 C 151.769531 385.601562 150.746094 382.375 149.835938 377.777344 C 149.570312 376.445312 150.117188 373.089844 150.171875 372.554688 L 161.425781 317.746094 C 162.851562 311.488281 166.90625 306.539062 172.910156 304.269531 C 169.265625 301.40625 168.613281 296.574219 168.152344 292.300781 C 168.132812 289.933594 168.558594 287.589844 169.402344 285.378906 L 194.078125 220.914062 C 196.839844 213.699219 203.710938 208.890625 211.429688 208.757812 L 250.953125 208.089844 C 261.402344 207.914062 270.015625 216.242188 270.191406 226.695312 C 270.265625 230.914062 268.925781 235.035156 266.386719 238.40625 L 250.367188 259.671875 C 258.273438 262.335938 261.371094 268.886719 262.230469 276.679688 C 262.261719 280.675781 261.03125 284.582031 258.714844 287.832031 L 245.832031 305.929688 C 252.765625 308.617188 255.277344 315.578125 255.976562 322.328125 C 255.992188 328.148438 253.339844 333.644531 248.777344 337.246094 L 180.425781 391.21875 C 177.285156 393.859375 173.945312 394.183594 170.117188 395.234375 L 169.410156 395.15625 L 168.710938 395.292969 " fill-opacity="1" fill-rule="nonzero"/></g><path fill="#ebc817" d="M 168.703125 376.359375 L 179.957031 321.550781 L 195.53125 321.226562 L 214.433594 291.929688 L 187.070312 292.148438 L 211.746094 227.683594 L 251.273438 227.015625 L 213.53125 277.117188 L 243.304688 276.847656 L 210.820312 322.464844 L 237.054688 322.386719 L 168.703125 376.359375 " fill-opacity="1" fill-rule="nonzero"/><path fill="#f3f6f8" d="M 106.046875 350.539062 C 103.03125 350.605469 100.070312 350.160156 97.09375 349.703125 C 96.351562 349.5625 95.621094 349.378906 94.902344 349.15625 C 80.140625 344.453125 72.75 331.738281 72.109375 316.902344 C 72.109375 316.402344 72.128906 315.898438 72.164062 315.398438 C 72.445312 308.722656 74.84375 302.492188 77.675781 296.539062 C 77.949219 295.976562 78.25 295.425781 78.574219 294.898438 C 79.585938 293.238281 79 294.171875 80.351562 292.121094 C 80.636719 291.691406 80.941406 291.273438 81.265625 290.867188 C 91.308594 277.589844 106.710938 270.15625 118.1875 258.371094 C 125.578125 250.980469 137.558594 250.988281 144.941406 258.382812 C 149.609375 263.054688 151.5 269.824219 149.9375 276.242188 C 146.160156 289.949219 146.128906 304.253906 142.625 318.011719 C 142.507812 318.425781 142.386719 318.832031 142.246094 319.238281 C 141.035156 322.792969 141.730469 320.871094 140.117188 324.984375 C 139.941406 325.429688 139.742188 325.871094 139.53125 326.304688 C 136.460938 333.410156 130.910156 338.765625 125.160156 343.738281 C 123.378906 345.273438 121.324219 346.464844 119.105469 347.253906 C 115.945312 348.828125 112.507812 349.550781 109.136719 350.375 L 108.671875 350.347656 L 106.046875 350.539062 " fill-opacity="1" fill-rule="nonzero"/><path fill="#6ea4dd" d="M 101.332031 324.121094 C 100.742188 322.488281 100.46875 320.765625 100.144531 319.0625 C 100.050781 315.769531 99.867188 314.152344 101.332031 310.691406 C 103.894531 304.648438 110.390625 299.269531 114.679688 294.789062 C 116.539062 292.847656 118.398438 290.910156 120.167969 288.855469 C 123.15625 285.375 125.871094 281.59375 128.199219 277.574219 C 125.597656 282.09375 121.660156 285.59375 117.832031 289.039062 C 111.804688 294.277344 109.074219 295.761719 103.753906 301.277344 C 100.859375 304.277344 97.558594 308.964844 96.863281 313.214844 C 96.6875 314.292969 96.613281 315.375 96.6875 316.398438 C 96.917969 319.863281 98.941406 322.566406 101.332031 324.121094 Z M 106.542969 331.621094 C 104.632812 331.558594 102.503906 331.59375 100.625 331.109375 C 94.5625 329.542969 90.804688 322.785156 91.03125 316.84375 C 91.203125 312.300781 92.738281 308.777344 94.710938 304.78125 C 95.164062 304.070312 95.5625 303.324219 96.070312 302.65625 C 99.769531 297.8125 103.226562 294.898438 107.792969 291.320312 C 115.832031 285.042969 124.265625 279.417969 131.558594 271.757812 C 130.007812 277.707031 128.882812 283.570312 128.058594 289.519531 C 127.015625 297.058594 126.597656 305.609375 124.34375 313.117188 C 123.855469 314.75 123.21875 316.359375 122.554688 317.949219 C 122.234375 318.722656 121.78125 319.449219 121.390625 320.195312 C 119.378906 324.09375 116.015625 326.582031 112.792969 329.410156 L 106.542969 331.621094 " fill-opacity="1" fill-rule="nonzero"/><path fill="#f3f6f8" d="M 304.128906 350.542969 C 301.109375 350.605469 298.148438 350.160156 295.175781 349.703125 C 294.429688 349.5625 293.699219 349.378906 292.980469 349.15625 C 278.222656 344.453125 270.828125 331.738281 270.191406 316.902344 C 270.191406 316.402344 270.210938 315.898438 270.246094 315.398438 C 270.527344 308.722656 272.921875 302.492188 275.757812 296.539062 C 276.027344 295.976562 276.328125 295.425781 276.652344 294.898438 C 277.664062 293.238281 277.082031 294.171875 278.429688 292.121094 C 278.71875 291.691406 279.027344 291.273438 279.351562 290.871094 C 289.386719 277.589844 304.792969 270.15625 316.265625 258.371094 C 323.660156 250.984375 335.636719 250.984375 343.019531 258.382812 C 347.691406 263.054688 349.582031 269.824219 348.015625 276.242188 C 344.242188 289.949219 344.210938 304.253906 340.703125 318.011719 C 340.585938 318.425781 340.46875 318.832031 340.328125 319.238281 C 339.113281 322.792969 339.8125 320.871094 338.199219 324.984375 C 338.023438 325.429688 337.824219 325.871094 337.613281 326.304688 C 334.542969 333.410156 328.988281 338.765625 323.238281 343.738281 C 321.457031 345.273438 319.402344 346.464844 317.1875 347.253906 C 314.023438 348.828125 310.585938 349.550781 307.21875 350.375 L 306.753906 350.347656 L 304.128906 350.542969 " fill-opacity="1" fill-rule="nonzero"/><path fill="#6ea4dd" d="M 299.417969 324.121094 C 298.820312 322.488281 298.546875 320.765625 298.226562 319.0625 C 298.128906 315.769531 297.953125 314.152344 299.417969 310.6875 C 301.972656 304.648438 308.46875 299.265625 312.765625 294.789062 C 314.621094 292.847656 316.476562 290.90625 318.246094 288.855469 C 321.242188 285.375 323.949219 281.589844 326.285156 277.574219 C 323.683594 282.09375 319.742188 285.59375 315.914062 289.039062 C 309.882812 294.273438 307.152344 295.761719 301.835938 301.277344 C 298.945312 304.277344 295.644531 308.964844 294.941406 313.214844 C 294.769531 314.292969 294.695312 315.375 294.765625 316.398438 C 295 319.863281 297.023438 322.566406 299.417969 324.121094 Z M 304.628906 331.621094 C 302.714844 331.558594 300.582031 331.59375 298.703125 331.105469 C 292.640625 329.542969 288.886719 322.785156 289.117188 316.84375 C 289.289062 312.300781 290.820312 308.777344 292.789062 304.78125 C 293.246094 304.070312 293.640625 303.320312 294.152344 302.65625 C 297.847656 297.8125 301.304688 294.894531 305.875 291.320312 C 313.914062 285.042969 322.34375 279.417969 329.636719 271.757812 C 328.089844 277.707031 326.964844 283.570312 326.144531 289.515625 C 325.097656 297.058594 324.683594 305.609375 322.425781 313.117188 C 321.9375 314.75 321.296875 316.359375 320.632812 317.949219 C 320.3125 318.722656 319.863281 319.449219 319.476562 320.195312 C 317.460938 324.09375 314.097656 326.578125 310.871094 329.410156 L 304.628906 331.621094 " fill-opacity="1" fill-rule="nonzero"/></svg>